<svg width="14" height="15" viewBox="0 0 14 15" fill="none" xmlns="http://www.w3.org/2000/svg">
<g id="Frame">
<g id="Group">
<path id="Vector" d="M5.22105 12.2728L3.79783 13.092C3.59211 13.2156 3.35718 13.2823 3.11718 13.285C2.87719 13.2878 2.64078 13.2266 2.43226 13.1078C2.22374 12.9889 2.05063 12.8167 1.93073 12.6088C1.81083 12.4008 1.74846 12.1647 1.75003 11.9247L2.72785 8.96565C2.80754 8.72525 2.95841 8.51475 3.16047 8.36206C3.36254 8.20937 3.60624 8.12171 3.85926 8.1107L7.39683 7.97759C7.60222 7.95481 7.79199 7.85708 7.92982 7.70311C8.06764 7.54915 8.14385 7.34976 8.14385 7.14311C8.14385 6.93647 8.06764 6.73708 7.92982 6.58312C7.79199 6.42915 7.60222 6.33142 7.39683 6.30864L3.85926 6.17041C3.60624 6.1594 3.36254 6.07174 3.16047 5.91905C2.95841 5.76636 2.80754 5.55586 2.72785 5.31545L1.75515 2.36663C1.75336 2.12637 1.81541 1.88995 1.93495 1.68154C2.05449 1.47313 2.22723 1.3002 2.43552 1.18044C2.6438 1.06068 2.88015 0.998377 3.12041 0.999905C3.36066 1.00143 3.5962 1.06674 3.80295 1.18914L7.9395 3.56971L12.0761 5.96051C12.2811 6.07992 12.4512 6.25102 12.5695 6.45674C12.6878 6.66245 12.75 6.89559 12.75 7.13287C12.75 7.37016 12.6878 7.6033 12.5695 7.80901C12.4512 8.01473 12.2811 8.18583 12.0761 8.30524L7.9395 10.6858L7.25861 11.08L5.22105 12.2728Z" fill="#9B7500"/>
</g>
</g>
</svg>
