<svg width="122" height="122" viewBox="0 0 122 122" fill="none" xmlns="http://www.w3.org/2000/svg">
<g id="Frame">
<g id="Group">
<path id="Vector" fill-rule="evenodd" clip-rule="evenodd" d="M34.791 47.7677L36.158 35.9389C36.8278 30.1427 39.7728 24.85 44.3449 21.2251C48.9171 17.6003 54.742 15.9401 60.5382 16.61C66.3344 17.2798 71.6271 20.2247 75.2519 24.7969C78.8768 29.3691 80.5369 35.194 79.8671 40.9901C79.6996 42.4392 78.9634 43.7624 77.8204 44.6686C76.6773 45.5748 75.2211 45.9898 73.772 45.8224C72.323 45.6549 70.9998 44.9187 70.0936 43.7756C69.1874 42.6326 68.7724 41.1764 68.9398 39.7273C69.2747 36.8292 68.4447 33.9168 66.6322 31.6307C64.8198 29.3446 62.1734 27.8722 59.2754 27.5372C56.3773 27.2023 53.4648 28.0324 51.1787 29.8448C48.8927 31.6573 47.4202 34.3036 47.0853 37.2017L45.8225 48.129L73.239 51.2974C77.56 51.7967 81.5058 53.9922 84.2081 57.4007C86.9104 60.8093 88.1481 65.1517 87.6487 69.4728L85.1003 91.524C84.5996 95.8445 82.4038 99.7893 78.9956 102.491C75.5874 105.193 71.2457 106.432 66.9249 105.934L39.5084 102.765C38.0594 102.598 36.7362 101.862 35.83 100.719C34.9237 99.5756 34.5087 98.1194 34.6762 96.6703C35.0111 93.7722 34.181 90.8598 32.3686 88.5737C30.5561 86.2876 27.9098 84.8151 25.0117 84.4802C23.5627 84.3128 22.2395 83.5765 21.3333 82.4335C20.427 81.2904 20.012 79.8342 20.1795 78.3852L22.0851 61.8959C22.9078 54.7768 28.1695 49.2503 34.791 47.7677ZM29.2125 96.0389C29.0451 97.4879 28.3088 98.8111 27.1658 99.7173C26.0228 100.624 24.5665 101.039 23.1175 100.871C21.6684 100.704 20.3453 99.9674 19.439 98.8244C18.5328 97.6814 18.1178 96.2251 18.2853 94.7761C18.4527 93.327 19.189 92.0039 20.332 91.0976C21.475 90.1914 22.9313 89.7764 24.3803 89.9439C25.8293 90.1113 27.1525 90.8475 28.0587 91.9906C28.965 93.1336 29.38 94.5898 29.2125 96.0389ZM48.7605 70.6149L47.4977 81.5422C47.3302 82.9913 47.7452 84.4475 48.6515 85.5905C49.5577 86.7336 50.8808 87.4698 52.3299 87.6372C53.7789 87.8047 55.2352 87.3897 56.3782 86.4835C57.5212 85.5772 58.2575 84.2541 58.4249 82.805L59.6877 71.8777C59.8552 70.4287 59.4402 68.9725 58.534 67.8294C57.6277 66.6864 56.3046 65.9502 54.8555 65.7827C53.4065 65.6152 51.9502 66.0303 50.8072 66.9365C49.6642 67.8427 48.9279 69.1659 48.7605 70.6149ZM89.5316 53.1802L94.9952 53.8116C96.4442 53.9791 97.9005 53.5641 99.0435 52.6578C100.187 51.7516 100.923 50.4284 101.09 48.9794C101.258 47.5304 100.843 46.0741 99.9364 44.9311C99.0302 43.788 97.7071 43.0518 96.258 42.8844L90.7944 42.253C89.3453 42.0855 87.8891 42.5005 86.7461 43.4067C85.603 44.313 84.8668 45.6361 84.6993 47.0852C84.5319 48.5342 84.9469 49.9904 85.8531 51.1335C86.7593 52.2765 88.0825 53.0128 89.5316 53.1802ZM95.4736 35.6349L101.569 30.8026C102.683 29.8872 103.393 28.5707 103.546 27.1367C103.699 25.7027 103.283 24.266 102.387 23.1359C101.491 22.0059 100.187 21.2729 98.7562 21.0949C97.3251 20.9169 95.8813 21.3081 94.7358 22.1843L88.6408 27.0165C87.5265 27.9319 86.8163 29.2484 86.6632 30.6824C86.5101 32.1164 86.9263 33.5531 87.8222 34.6832C88.7182 35.8133 90.0221 36.5462 91.4532 36.7242C92.8843 36.9022 94.3281 36.511 95.4736 35.6349Z" fill="#1E1C1D"/>
</g>
</g>
</svg>
